<svg width="612" height="400" fill="none" xmlns="http://www.w3.org/2000/svg"><g clip-path="url(#clip0)"><path fill="#F7F8FB" d="M0 0h612v400H0z"/><g filter="url(#filter0_d)"><rect x="126" y="88" width="360" height="640" rx="16" fill="#fff"/><path fill="#073042" d="M126 88h360v36H126z"/><path fill="#fff" d="M410 99h14v14h-14z"/><rect x="432" y="99" width="14" height="14" rx="7" fill="#fff"/><path fill-rule="evenodd" clip-rule="evenodd" d="M462 113l8-14h-16l8 14z" fill="#fff"/><path fill="#E76E42" d="M150 148h312v120H150z"/><path fill="#EEEBE7" d="M150 288h260v24H150zM150 328h160v24H150zM150 368h160v24H150z"/></g></g><defs><clipPath id="clip0"><path fill="#fff" d="M0 0h612v400H0z"/></clipPath><filter id="filter0_d" x="108" y="70" width="396" height="676" filterUnits="userSpaceOnUse" color-interpolation-filters="sRGB"><feFlood flood-opacity="0" result="BackgroundImageFix"/><feColorMatrix in="SourceAlpha" values="0 0 0 0 0 0 0 0 0 0 0 0 0 0 0 0 0 0 127 0" result="hardAlpha"/><feMorphology radius="2" operator="dilate" in="SourceAlpha" result="effect1_dropShadow"/><feOffset/><feGaussianBlur stdDeviation="8"/><feColorMatrix values="0 0 0 0 0.235294 0 0 0 0 0.25098 0 0 0 0 0.262745 0 0 0 0.15 0"/><feBlend in2="BackgroundImageFix" result="effect1_dropShadow"/><feBlend in="SourceGraphic" in2="effect1_dropShadow" result="shape"/></filter></defs></svg>